<?xml version="1.0" encoding="UTF-8" standalone="no"?>
<svg width="273px" height="7px" viewBox="0 0 273 7" version="1.1" xmlns="http://www.w3.org/2000/svg" xmlns:xlink="http://www.w3.org/1999/xlink" xmlns:sketch="http://www.bohemiancoding.com/sketch/ns">
    <!-- Generator: Sketch 3.2.2 (9983) - http://www.bohemiancoding.com/sketch -->
    <title>Untitled</title>
    <desc>Created with Sketch.</desc>
    <defs>
        <linearGradient x1="50%" y1="0%" x2="100%" y2="79.475543%" id="linearGradient-1">
            <stop stop-color="#8CBEB0" offset="0%"></stop>
            <stop stop-color="#B8D27A" offset="100%"></stop>
        </linearGradient>
    </defs>
    <g id="Page-1" stroke="none" stroke-width="1" fill="none" fill-rule="evenodd" sketch:type="MSPage">
        <path d="M1.5,5.5 C1.5,5.5 16.6975938,0.950208187 23.8943825,0.950208187 C30.116698,0.950208187 35.5349971,5.5 41.7573126,5.5 C47.8821797,5.5 54.9831079,0.950208187 61.107975,0.950208187 C68.1841357,0.950208187 74.2842354,5.5 81.3603962,5.5 C88.9988896,5.5 98.0035277,0.950208187 105.642021,0.950208187 C112.736195,0.950208187 118.464223,5.5 125.558397,5.5 C132.139772,5.5 140.683395,0.950208187 147.264771,0.950208187 C154.102263,0.950208187 158.977509,5.5 165.815002,5.5 C172.552862,5.5 179.260324,0.950208187 185.998184,0.950208187 C192.49794,0.950208187 199.028095,5.5 205.52785,5.5 C210.625996,5.5 216.725539,0.950208187 221.823685,0.950208187 C225.76508,0.950208187 228.705077,5.5 232.646472,5.5 C238.827629,5.5 245.650493,0.950208187 251.83165,0.950208187 C258.601669,0.950208187 271.5,5.5 271.5,5.5" id="Line-5" stroke="url(#linearGradient-1)" stroke-linecap="square" sketch:type="MSShapeGroup"></path>
    </g>
</svg>